<svg id="Capa_3" data-name="Capa 3" xmlns="http://www.w3.org/2000/svg" viewBox="0 0 137.67 161.41"><defs><style>.cls-1,.cls-2{fill:#108ecf;}.cls-2{fill-rule:evenodd;}.cls-3{fill:#1a6692;}</style></defs><title>a2Mesa de trabajo 1</title><path class="cls-1" d="M61.65,113.94h0a1.83,1.83,0,0,0,.14.71,2,2,0,0,0,1.29,1.2,1.51,1.51,0,0,0,.47.09h0l1.58.27c2.51.41,5,.75,7.51,1l2.28.23c1,.09,2.07.16,3.1.21s1.85.12,2.78.16c1.17.06,2.33.09,3.5.11,1.64,0,3.27,0,4.9,0h.67l.5-.07a2.71,2.71,0,0,0,.86-.49,2.53,2.53,0,0,0,.62-.76,2.45,2.45,0,0,0,.28-.94.24.24,0,0,1,0-.14.46.46,0,0,1,.07-.07.33.33,0,0,1,.14,0,.32.32,0,0,1,.3.17l.27.55a13.91,13.91,0,0,1,.67,1.63,15.21,15.21,0,0,1,.84,5,15.41,15.41,0,0,1-15.42,15.41,12.22,12.22,0,0,1-1.48-.07,7.37,7.37,0,0,1-.93-.11c-3-.38-5.92-.85-8.89-1.45-1.77-.36-3.55-.74-5.32-1.17a134.06,134.06,0,0,1-13.06-3.84c-2.27-.8-4.49-1.65-6.68-2.56-1.71-.69-3.37-1.41-5-2.19l-.05,0-.49-.22s-.06,0-.06,0a4,4,0,0,1-1.75-1.92s0-.05,0-.09c-.07-.25-.16-.54-.24-.81v0a21.46,21.46,0,0,1-.74-5.65,21.86,21.86,0,0,1,1.32-7.5.92.92,0,0,0,.09-.25,3.57,3.57,0,0,0,.24-1.36,2.75,2.75,0,0,0,0-.4,2.28,2.28,0,0,0-.13-.64v-.05a.06.06,0,0,1,0,0,1.48,1.48,0,0,0-.18-.47,24.75,24.75,0,0,1-1.3-7.88,25.22,25.22,0,0,1,.83-6.32,0,0,0,0,0,0,0,4.61,4.61,0,0,1,.15-.53v0a3.38,3.38,0,0,0,.07-.72,0,0,0,0,0,0,0v0a3.73,3.73,0,0,0-.17-1.11s0,0,0,0A2.58,2.58,0,0,0,35,90.1a28.39,28.39,0,0,1-.29-18.16s0,0,0-.06.06-.16.09-.25,0-.13.06-.18a4,4,0,0,1,1.45-1.76s0,0,0,0l.48-.27s0,0,0,0a170.83,170.83,0,0,1,18.67-9c1.78-.75,3.57-1.45,5.38-2.12,3.61-1.36,7.26-2.59,11-3.72l1.37-.41c3-.87,6-1.65,9-2.36,1.05-.25,2.14-.5,3.21-.72a2.56,2.56,0,0,0,2-2.5A2.51,2.51,0,0,0,87,46.92s0-.05-.05-.07a.35.35,0,0,1-.07-.2.29.29,0,0,1,.27-.29.23.23,0,0,1,.11,0A27.87,27.87,0,0,1,91,47.59l.08,0a27.85,27.85,0,0,1,3.46,1.72c.49.27,1,.58,1.43.89A15.41,15.41,0,0,1,94.36,75.5a.78.78,0,0,1-.18.11l-.6.33a.93.93,0,0,1-.2.09c-1,.54-2,1.07-3,1.59a3.52,3.52,0,0,0-.39.18l-.49.26c-.46.21-.89.43-1.34.65-1.51.72-3,1.43-4.53,2.1s-2.92,1.25-4.39,1.83h0c-.75.31-1.49.58-2.25.87-1.45.54-2.92,1.07-4.38,1.56-3,1-6.12,1.93-9.26,2.75h0a2,2,0,0,0-.63.14,2.08,2.08,0,0,0-1.21,1.63V90s0,0,0,0a2,2,0,0,0,1.79,1.77,0,0,0,0,0,0,0,1.86,1.86,0,0,0,.33,0h0l.29,0h0c3.64-.38,7.23-.93,10.78-1.62,2-.38,3.91-.79,5.85-1.25q4.29-1,8.44-2.33c1.4-.44,2.79-.89,4.17-1.38l.39-.13,1.53-.54,0,0a.25.25,0,0,1,.13,0,.32.32,0,0,0,.14-.08,2.55,2.55,0,0,0,1.45-2.93,2.3,2.3,0,0,0-.14-.42l-.06-.13a.29.29,0,0,1,0-.36.31.31,0,0,1,.35,0l.14.08c.21.12.43.24.63.37A15.25,15.25,0,0,1,100,82.62a15.54,15.54,0,0,1,4.12,6.1,15.84,15.84,0,0,1,.94,5.33,15.43,15.43,0,0,1-12.3,15.1c-1.65.35-3.3.66-4.94.95-2.61.43-5.22.79-7.87,1.08-1,.11-1.91.2-2.89.27a3.57,3.57,0,0,1-.46,0,.06.06,0,0,0,0,0c-.91,0-1.79.09-2.68.18h-.06c-1.86.13-3.73.2-5.61.24-1.48,0-3,0-4.51,0a2,2,0,0,0-2,1.57A2.2,2.2,0,0,0,61.65,113.94Z"/><path class="cls-2" d="M72.23,36.56v.09c0,1,0,2-.08,3a54.72,54.72,0,0,1-1.4,9.73.24.24,0,0,1-.15.16q-6.76,2.22-13.28,5-7.18,3-14,6.68A.22.22,0,0,1,43,61a110.48,110.48,0,0,0,1.2-15.42c0-.36,0-.71,0-1.07s0-.94,0-1.42a111.7,111.7,0,0,0-1-14c-.07-.51-.14-1-.22-1.51a.41.41,0,0,0,0-.12,43.26,43.26,0,0,1-.33-5.37,42.14,42.14,0,0,1,.2-4.22,1.09,1.09,0,0,0,0-.18,9.09,9.09,0,0,1,5.07-7.17l.31-.14.51-.2A19.11,19.11,0,0,1,59.59,9.4l.55.13h0l.55.16a9.29,9.29,0,0,1,1.92.88c.17.11.35.22.51.34q.57.45,1.11.93a.1.1,0,0,0,.06.05,20.11,20.11,0,0,1,5.58,8.72l.09.3A55.7,55.7,0,0,1,72.23,36.56Z"/><path class="cls-3" d="M86.24,47.88A2.26,2.26,0,0,1,84.68,50l-.19,0h0c-.35.08-.7.15-1,.24-.61.13-1.21.28-1.82.43l-1.9.46a.22.22,0,0,1-.25-.1Q78,48.48,76.26,46a.22.22,0,0,1,.15-.35,28.61,28.61,0,0,1,7.77,0h0l.27,0a2.23,2.23,0,0,1,.39.13,2.16,2.16,0,0,1,1.06,1A2.18,2.18,0,0,1,86.24,47.88Z"/><path class="cls-3" d="M95.31,80.38a2.24,2.24,0,0,1-1,3.23l-.34.13q-2.73,1-5.52,1.84v0c0-1.87-.07-3.72-.21-5.54a.22.22,0,0,1,.19-.24,46.09,46.09,0,0,1,4.89-.37h.07A2,2,0,0,1,95.31,80.38Z"/><path class="cls-3" d="M91.28,114.7a2.07,2.07,0,0,1-1.81,2.06H89c-2.47,0-5,0-7.43-.08a.22.22,0,0,1-.19-.32c.75-1.52,1.44-3.06,2.08-4.64a.22.22,0,0,1,.23-.14,44,44,0,0,1,5.89,1.06h.06l.26.07A2.07,2.07,0,0,1,91.28,114.7Z"/><path class="cls-1" d="M134,92a64.68,64.68,0,0,1-19.07,46C99.36,153.6,77.37,160.33,55,155.72a61.05,61.05,0,0,1-21.36-8.85C14.54,134.3,3.73,114,3.73,92A64.88,64.88,0,0,1,31.25,39a.53.53,0,0,1,.83.43V48.3a.53.53,0,0,1-.19.4,57.13,57.13,0,0,0-18.08,58.42,56,56,0,0,0,41.27,40.35C92.55,156.27,126,128.05,126,92A57,57,0,0,0,84.53,37.12a.52.52,0,0,1-.39-.5V29.37a.54.54,0,0,1,.66-.52A66.05,66.05,0,0,1,115,46,64.64,64.64,0,0,1,134,92Z"/></svg>